<svg version="1.1" 
     id="icons"
     xmlns="http://www.w3.org/2000/svg"
     xmlns:xlink="http://www.w3.org/1999/xlink"
     x="0px"
     y="0px"
     viewBox="0 0 512 512"
     style="enable-background:new 0 0 512 512;"
     xml:space="preserve">
  <symbol id="icon-chevron-left" viewBox="0 0 512 512">
    <path d="M103.5,263.2L344.4,509c3.9,4,10.2,4,14.2,0l49.8-50.7c3.9-4,3.9-10.4,0-14.4L232.6,265.3c-5.1-5.2-5.1-13.5,0-18.7
		L408.5,67.9c3.9-3.9,3.9-10.3,0.1-14.3L359.6,3c-3.9-4-10.3-4-14.2-0.1L103.6,248.8C99.7,252.8,99.7,259.2,103.5,263.2z"/>
  </symbol>
  <symbol id="icon-chevron-right" viewBox="0 0 512 512">
    <path d="M408.8,264L167.9,509.8c-3.9,4-10.2,4-14.2,0l-49.8-50.7c-3.9-4-3.9-10.4,0-14.4L279.6,266c5.1-5.2,5.1-13.5,0-18.7
		L103.8,68.7c-3.9-3.9-3.9-10.3-0.1-14.3l49-50.6c3.9-4,10.3-4,14.2-0.1l241.8,245.8C412.6,253.6,412.6,260,408.8,264z"/>
  </symbol>
  <symbol id="icon-facebook" viewBox="0 0 512 512">
    <path d="M305.53,195.41v-3.7q0-28.4,0-56.79a61.41,61.41,0,0,1,2.23-17.22c4.76-16.37,15.61-26.34,32-30.46,6.76-1.69,13.65-2,20.57-2q17.11,0,34.25,0H398v-79c-4.27-.63-8.49-1.31-12.72-1.88-14.5-1.93-29-3.32-43.65-4-19.28-.92-38.43-.29-57.13,5.21-25,7.36-45.31,21.26-59.61,43.35-8.88,13.74-14.15,28.87-17,44.89a172.57,172.57,0,0,0-2.56,31.37c.09,22.24,0,44.47,0,66.71v3.39l-13.59.06H124v92.58h80.73c.73,2.34.86,220.84.21,223.81,17.08-.47,83.76.79,101.09,0-.59-2.09-.81-219-.19-223.66h74.31c4.75-30.95,9.46-61.64,14.22-92.68Z"/>
  </symbol>
  <symbol id="icon-mobile-menu" viewBox="0 0 512 512">
    <line x1="470" y1="406" x2="42" y2="406" style="stroke-linecap:round;stroke-miterlimit:10;stroke-width:64px"/>
    <line x1="470" y1="256" x2="42" y2="256" style="stroke-linecap:round;stroke-miterlimit:10;stroke-width:64px"/>
    <line x1="470" y1="106" x2="42" y2="106" style="stroke-linecap:round;stroke-miterlimit:10;stroke-width:64px"/>
  </symbol>
  <symbol id="icon-instagram" viewBox="0 0 512 512">
    <path d="M340.66,512H172.36c-1.6-.28-3.18-.69-4.79-.83-16.29-1.42-32.83-1.43-48.82-4.43-58.38-11-95.84-45.19-110.69-103.31-6.35-24.81-6.52-50.29-6.7-75.6-.37-53.62.16-107.26.56-160.89.15-20,1.38-39.9,6.32-59.37C19.09,64.8,43.8,33.41,84.38,15.33c22.9-10.2,47.3-13.17,72.05-14.17C161.75.94,167.05.39,172.36,0h168.3a34.37,34.37,0,0,0,4.78.82c19.75.59,39.47,1.48,58.75,6.33C447.7,18.09,479.36,43.37,497.3,85c9.73,22.54,12.55,46.5,13.55,70.78.22,5.32.76,10.64,1.15,16V340.32a33.29,33.29,0,0,0-.81,4.79c-.59,19.79-1.48,39.54-6.32,58.87-10.92,43.59-36.15,75.31-77.65,93.29-22.5,9.75-46.41,12.58-70.64,13.57C351.27,511.06,346,511.61,340.66,512ZM466.31,256h-.78c0-21.32.41-42.66-.12-64-.51-20.1-1.25-40.25-3.29-60.24-2-19.3-8.77-37-21.86-52-18-20.56-41.65-29.23-67.79-30.83-30.14-1.85-60.38-2.29-90.59-2.66q-44.58-.54-89.18.36c-20.06.41-40.18,1.25-60.13,3.29-19.26,2-37,8.79-51.89,21.9-20.53,18-29.17,41.73-30.77,67.92-1.85,30.2-2.28,60.51-2.66,90.78q-.54,44.67.36,89.36c.41,20.1,1.25,40.25,3.29,60.24,2,19.3,8.77,37,21.86,52,18,20.56,41.64,29.23,67.78,30.83,30.14,1.85,60.39,2.29,90.59,2.66,29.73.36,59.47.37,89.19-.4,22.06-.57,44.35-1,66.08-4.4,37.13-5.82,62.31-27.36,72.3-64.3a168.9,168.9,0,0,0,5.43-37.52C465.41,324.73,465.66,290.38,466.31,256Z"/>
    <path d="M125.21,255.8A131.33,131.33,0,0,1,257,124.44c72.37.14,130.9,59.08,130.85,131.76A131.34,131.34,0,0,1,256.05,387.56C183.7,387.43,125.13,328.45,125.21,255.8Zm216.29.33c0-46.63-38-85.25-84-85.29-47.4-.05-86,37.74-86,84.27,0,47.65,37.78,86.05,84.74,86.05A85.17,85.17,0,0,0,341.5,256.13Z"/>
    <path d="M392.6,88.55a30.88,30.88,0,1,1,.23,61.76,30.88,30.88,0,0,1-.23-61.76Z"/>
  </symbol>
  <symbol id="icon-tiktok" viewBox="0 0 512 512">
    <path d="M473.91,207.13q-6.29.6-12.59.64a136.73,136.73,0,0,1-114.4-61.83V355.55c0,86.58-70.31,157.18-156.88,156.44a155.53,155.53,0,0,1,1.35-311.06h0c3.25,0,6.42.29,9.61.49v76.65a80.4,80.4,0,0,0-9.61-1,79.39,79.39,0,0,0,0,158.77c43.85,0,82.57-34.55,82.57-78.4L274.73,0h73.4a136.69,136.69,0,0,0,126,122v85.25"/>
  </symbol>
  <symbol id="icon-twitter" viewBox="0 0 512 512">
    <path d="M161.26,466.29c192.83,0,298.3-159.75,298.3-298.3,0-4.53,0-9.05-.31-13.55a213.37,213.37,0,0,0,52.31-54.27,209.28,209.28,0,0,1-60.22,16.5,105.21,105.21,0,0,0,46.1-58,210.19,210.19,0,0,1-66.58,25.45A104.94,104.94,0,0,0,252.2,179.75,297.63,297.63,0,0,1,36.13,70.21a104.91,104.91,0,0,0,32.45,140A104,104,0,0,1,21,197v1.33a104.87,104.87,0,0,0,84.11,102.77,104.75,104.75,0,0,1-47.34,1.8,105,105,0,0,0,97.95,72.81A210.41,210.41,0,0,1,.56,419.2a296.74,296.74,0,0,0,160.7,47"/>
  </symbol>
  <symbol id="icon-x" viewBox="0 0 512 512">
    <path d="M509,444a10.32,10.32,0,0,1,0,14.4L459.2,509a9.78,9.78,0,0,1-14.1,0L256,316.1,67,509a9.78,9.78,0,0,1-14.1,0L3,458.3a10.32,10.32,0,0,1,0-14.4L178.7,265.3a13.34,13.34,0,0,0,0-18.7L2.9,67.9a10.3,10.3,0,0,1,0-14.3L51.8,3A9.9,9.9,0,0,1,66,3L256,196.1,446,3a9.9,9.9,0,0,1,14.2,0l49,50.6a10.3,10.3,0,0,1-.1,14.3L333.3,246.6a13.34,13.34,0,0,0,0,18.7Z"/>
  </symbol>
</svg>